<svg version="1.0" xmlns="http://www.w3.org/2000/svg"
 width="721.000000pt" height="334.000000pt" viewBox="0 0 721.000000 334.000000"
 preserveAspectRatio="xMidYMid meet">

<g transform="translate(0.000000,334.000000) scale(0.100000,-0.100000)"
fill="#000000" stroke="none">
<path d="M608 2209 c-98 -49 -178 -91 -178 -94 0 -5 359 172 369 181 17 16
-38 -9 -191 -87z"/>
<path d="M1167 2129 c7 -7 15 -10 18 -7 3 3 -2 9 -12 12 -14 6 -15 5 -6 -5z"/>
<path d="M425 1641 l0 -464 25 -15 25 -14 -22 18 -23 19 -3 460 -2 460 0 -464z"/>
<path d="M495 2017 c-3 -7 -4 -138 -2 -292 l2 -280 3 288 c1 158 4 287 7 287
3 0 86 -41 185 -90 l180 -90 0 -284 c0 -184 -4 -286 -10 -289 -6 -3 -5 -4 2
-3 10 2 13 65 13 292 l0 289 -180 92 c-99 51 -184 92 -188 93 -4 0 -10 -6 -12
-13z"/>
<path d="M1728 1850 c9 -11 12 -120 12 -475 0 -355 -3 -464 -12 -475 -11 -12
-10 -12 5 -1 16 12 17 47 17 476 0 429 -1 464 -17 476 -15 11 -16 11 -5 -1z"/>
<path d="M1603 1833 c4 -3 1 -13 -6 -22 -11 -14 -10 -14 5 -2 16 12 16 31 1
31 -4 0 -3 -3 0 -7z"/>
<path d="M946 1803 c-9 -9 -8 -581 2 -586 4 -3 6 127 4 289 l-3 294 181 -90
180 -90 0 -284 c0 -184 -4 -286 -10 -289 -6 -3 -5 -4 2 -3 10 2 13 65 13 292
l0 289 -181 92 c-100 51 -184 89 -188 86z"/>
<path d="M1660 1753 c6 -3 10 -140 10 -402 l0 -396 -135 -68 c-74 -37 -137
-67 -140 -67 -3 0 -6 179 -7 398 l-3 397 -2 -394 c-2 -219 1 -399 6 -404 5 -5
68 21 150 62 l141 71 -2 402 c-2 316 -6 402 -16 404 -7 1 -8 0 -2 -3z"/>
<path d="M497 1353 c-10 -9 -9 -131 1 -136 4 -3 6 26 4 64 -2 38 -1 69 2 69 3
0 186 -90 407 -200 l401 -201 -4 -69 c-2 -38 1 -65 5 -61 4 4 7 37 5 72 l-3
64 -400 202 c-220 111 -403 202 -406 202 -3 1 -9 -2 -12 -6z"/>
<path d="M2362 888 c-1 -60 1 -108 6 -108 4 0 6 33 4 72 -5 132 -9 145 -10 36z"/>
<path d="M3182 968 c-7 -7 -12 -20 -12 -30 0 -10 -7 -18 -17 -18 -16 0 -16 -1
0 -12 10 -9 18 -32 20 -68 4 -47 4 -46 3 11 -1 60 0 65 19 64 14 -2 15 -1 3 2
-22 5 -23 21 -1 45 18 20 4 25 -15 6z"/>
<path d="M4417 973 c-4 -3 -7 -15 -7 -25 0 -10 -7 -21 -15 -24 -11 -4 -12 -10
-6 -18 6 -6 12 -36 14 -66 3 -46 4 -44 3 12 -2 62 0 67 19 64 11 -2 14 -1 8 1
-19 7 -16 40 5 52 14 9 15 10 1 11 -9 0 -19 -3 -22 -7z"/>
<path d="M4500 970 c0 -5 5 -10 10 -10 6 0 10 5 10 10 0 6 -4 10 -10 10 -5 0
-10 -4 -10 -10z"/>
<path d="M4570 899 c0 -86 11 -119 38 -119 16 1 16 1 0 11 -15 8 -18 25 -18
99 0 53 -4 90 -10 90 -6 0 -10 -34 -10 -81z"/>
<path d="M2794 940 c1 -16 7 -25 19 -26 11 -1 12 0 3 3 -8 2 -17 14 -19 26 -3
18 -4 18 -3 -3z"/>
<path d="M2442 850 l1 -75 7 60 c4 33 3 67 -1 75 -5 9 -8 -17 -7 -60z"/>
<path d="M2465 911 c-3 -6 8 -8 28 -4 42 6 57 -11 67 -79 l8 -53 1 50 c1 66
-18 95 -64 95 -19 0 -36 -4 -40 -9z"/>
<path d="M2637 913 c-4 -3 -7 -17 -7 -29 0 -18 8 -25 39 -34 41 -11 57 -30 38
-49 -14 -14 -42 -14 -68 -1 -11 6 -19 7 -19 1 0 -24 81 -29 101 -5 18 22 1 46
-42 60 -23 8 -34 18 -34 30 0 15 7 19 37 18 21 -1 35 3 32 7 -6 10 -68 12 -77
2z"/>
<path d="M2773 909 c12 -7 17 -23 17 -57 0 -49 12 -72 39 -72 11 0 9 5 -7 16
-17 11 -22 25 -22 58 0 41 -13 66 -34 66 -6 0 -3 -5 7 -11z"/>
<path d="M2913 914 c-7 -3 -17 -21 -24 -41 -10 -31 -9 -39 8 -62 27 -35 68
-39 100 -9 l25 23 -6 -22 c-5 -15 -3 -23 5 -23 18 0 5 96 -16 120 -17 19 -62
26 -92 14z m79 -21 c36 -32 12 -103 -35 -103 -49 0 -75 64 -40 102 20 22 51
23 75 1z"/>
<path d="M3317 913 c60 -8 85 -78 38 -109 -52 -34 -107 13 -85 72 14 35 12 42
-5 20 -35 -46 -3 -116 53 -116 46 0 72 25 72 70 0 46 -27 71 -75 68 l-30 -1
32 -4z"/>
<path d="M3451 913 c-1 -16 16 -26 24 -13 3 5 18 11 33 11 24 2 25 2 4 6 -13
3 -29 0 -37 -7 -10 -8 -14 -8 -18 2 -4 9 -6 9 -6 1z"/>
<path d="M3640 915 c0 -3 14 -33 31 -66 30 -60 30 -62 15 -100 -9 -21 -14 -39
-11 -39 10 0 45 81 40 90 -3 6 -2 10 3 10 11 0 56 99 49 107 -3 2 -16 -21 -30
-51 -14 -31 -29 -56 -32 -56 -3 0 -17 25 -31 55 -23 49 -34 66 -34 50z"/>
<path d="M3816 898 c-24 -33 -20 -84 6 -102 51 -36 118 -5 118 54 0 63 -90 98
-124 48z m87 0 c27 -22 31 -60 7 -86 -53 -57 -129 8 -86 74 18 26 52 32 79 12z"/>
<path d="M3991 875 c-1 -63 19 -95 59 -95 16 0 35 7 44 15 13 13 15 13 19 -3
3 -9 4 17 4 58 0 54 -2 61 -4 25 -5 -55 -25 -85 -58 -85 -32 0 -46 22 -55 82
l-8 53 -1 -50z"/>
<path d="M4180 850 c0 -40 4 -70 10 -70 6 0 10 24 10 53 0 59 11 76 50 78 24
2 24 2 2 6 -14 3 -32 -3 -45 -14 -19 -17 -20 -17 -14 0 4 9 2 17 -3 17 -6 0
-10 -31 -10 -70z"/>
<path d="M4503 850 c0 -41 2 -58 4 -37 2 20 2 54 0 75 -2 20 -4 3 -4 -38z"/>
<path d="M4673 914 c-7 -3 -17 -21 -24 -41 -10 -31 -9 -39 8 -62 21 -28 77
-41 96 -22 7 7 0 9 -24 5 -37 -6 -63 9 -73 41 -5 19 -2 20 59 17 l65 -4 -11
28 c-5 16 -16 32 -22 36 -13 8 -55 9 -74 2z m75 -16 c26 -26 13 -38 -38 -38
-51 0 -64 12 -38 38 15 15 61 15 76 0z"/>
<path d="M4829 904 c-18 -22 -2 -44 41 -58 45 -14 49 -49 7 -54 -16 -2 -35 2
-43 9 -10 8 -14 8 -14 0 0 -15 44 -25 76 -17 37 10 30 56 -11 69 -41 13 -55
26 -48 43 6 17 54 19 71 2 8 -8 12 -8 12 -1 0 26 -71 31 -91 7z"/>
<path d="M3453 830 c0 -30 2 -43 4 -27 2 15 2 39 0 55 -2 15 -4 2 -4 -28z"/>
</g>
</svg>
